<svg id="Layer_1" data-name="Layer 1" xmlns="http://www.w3.org/2000/svg" xmlns:xlink="http://www.w3.org/1999/xlink" viewBox="0 0 2462.3 959.7"><defs><style>.cls-1{fill:none;}.cls-1,.cls-2,.cls-3,.cls-4{stroke:#1d1d1b;stroke-miterlimit:10;stroke-width:0.25px;}.cls-2{fill:url(#linear-gradient);}.cls-3{fill:url(#linear-gradient-2);}.cls-4{fill:#1d1d1b;}</style><linearGradient id="linear-gradient" x1="1912.94" y1="1100.6" x2="1937.12" y2="1100.6" gradientUnits="userSpaceOnUse"><stop offset="0" stop-color="#8ecce4"/><stop offset="1" stop-color="#6eb7e0"/></linearGradient><linearGradient id="linear-gradient-2" x1="1801.14" y1="1301.76" x2="1801.14" y2="1297.72" xlink:href="#linear-gradient"/></defs><path class="cls-1" d="M1802.8,1113.6h0" transform="translate(-324.3 -710.2)"/><path class="cls-1" d="M1801.4,1297.7c-.2,1.4-.3,2.7-.5,4.1" transform="translate(-324.3 -710.2)"/><path class="cls-2" d="M1937.1,1100.7h-24.2C1921,1100.5,1929.1,1100.5,1937.1,1100.7Z" transform="translate(-324.3 -710.2)"/><path class="cls-3" d="M1801.4,1297.7c-.2,1.4-.3,2.7-.5,4.1A28.7,28.7,0,0,1,1801.4,1297.7Z" transform="translate(-324.3 -710.2)"/><path class="cls-4" d="M2705,712.2h0a410.2,410.2,0,0,0-327.8,163.7,413.6,413.6,0,0,0-82.2-82.3c-137.1-108.1-354.3-108.2-491.5-.3l-.4.3a409.3,409.3,0,0,0-80.7,80.3c-48.9,64.3-79.2,143.4-83.7,242.1v151.9c-29.8,312.4-475.4,303.6-492.7-10.3v-4.4l-.5-132.6v-5.3c-1.1-90.8-30.8-174.6-81.8-242.1A412.3,412.3,0,0,0,982,791.7c-137.6-108.5-355.6-108.5-493.1,0-99.9,75-164.5,194.4-164.5,328.9v133.3c0,134.4,64.6,253.8,164.5,328.8,137.5,108.5,355.5,108.5,493,0a414.3,414.3,0,0,0,82.8-82.9,414.5,414.5,0,0,0,81.7,81.4,411,411,0,0,0,492.6.3l.4-.3a410.8,410.8,0,0,0,161.5-279.4,28.7,28.7,0,0,1,.5-4.1,38.3,38.3,0,0,1,37.7-31.8h151.1c108.1-1.8,108-162.6,0-164.4-15.9.4-34.1-.5-52.8-.8h-86.2c-25.1.4-44-24.9-36.9-48.8h0c75.1-255.1,465-230.7,482.1,65v1.4c0,1.5-.1,3-.1,4.5v133.4h.1v3.7a3.7,3.7,0,0,1-.1,1.1v323.2h.1c-2.1,46.5,35.4,85.8,81.9,85.7s83.8-38.9,81.9-85.2c.1,0,.1,0,.1.1V1122.2h0v-4.8c2.9-133.7,111.9-241.2,245.9-241.2H2705C2813.8,871.9,2813.7,716.5,2705,712.2ZM982.5,1252.4v5.2c-18.8,321.2-474.5,322.8-494,1.7V1115.4c18.5-320,475.7-319.8,494,0v.9c.1,1,.1,2,.1,2.9Z" transform="translate(-324.3 -710.2)"/></svg>